<svg width="680" height="820" viewBox="0 0 680 820" xmlns="http://www.w3.org/2000/svg" role="img">
<title>Smart Expense Tracker Architecture Diagram</title>
<desc>MVVM Architecture showing UI Layer, ViewModel Layer, Repository Layer, and Data Layer</desc>

<style>
  text { font-family: Arial, sans-serif; }
  .layer-title { font-size: 14px; font-weight: bold; fill: #1a1a2e; }
  .box-title { font-size: 11px; font-weight: bold; fill: #1a1a2e; }
  .box-sub { font-size: 10px; fill: #444; }
  .arrow-label { font-size: 10px; fill: #555; }
</style>

<!-- Background -->
<rect width="680" height="820" fill="#f8f9fa" rx="12"/>

<!-- Title -->
<text x="340" y="30" text-anchor="middle" font-size="16" font-weight="bold" fill="#1a1a2e">Smart Expense Tracker — MVVM Architecture</text>

<!-- ===== LAYER 1: UI ===== -->
<rect x="30" y="48" width="620" height="175" rx="12" fill="#E3F2FD" stroke="#1565C0" stroke-width="1.5"/>
<text x="340" y="70" text-anchor="middle" class="layer-title" fill="#1565C0">UI Layer — Activities</text>

<!-- Row 1 activities -->
<rect x="48" y="80" width="84" height="38" rx="6" fill="#1565C0"/>
<text x="90" y="103" text-anchor="middle" class="box-title" fill="white">Splash</text>

<rect x="142" y="80" width="84" height="38" rx="6" fill="#1565C0"/>
<text x="184" y="103" text-anchor="middle" class="box-title" fill="white">Login</text>

<rect x="236" y="80" width="84" height="38" rx="6" fill="#1565C0"/>
<text x="278" y="103" text-anchor="middle" class="box-title" fill="white">Signup</text>

<rect x="330" y="80" width="84" height="38" rx="6" fill="#1565C0"/>
<text x="372" y="103" text-anchor="middle" class="box-title" fill="white">Dashboard</text>

<rect x="424" y="80" width="84" height="38" rx="6" fill="#1565C0"/>
<text x="466" y="97" text-anchor="middle" class="box-title" fill="white">Add</text>
<text x="466" y="111" text-anchor="middle" class="box-title" fill="white">Expense</text>

<rect x="518" y="80" width="84" height="38" rx="6" fill="#1565C0"/>
<text x="560" y="103" text-anchor="middle" class="box-title" fill="white">History</text>

<!-- Row 2 activities -->
<rect x="48" y="128" width="84" height="38" rx="6" fill="#1976D2"/>
<text x="90" y="151" text-anchor="middle" class="box-title" fill="white">Analytics</text>

<rect x="142" y="128" width="84" height="38" rx="6" fill="#1976D2"/>
<text x="184" y="151" text-anchor="middle" class="box-title" fill="white">Charts</text>

<rect x="236" y="128" width="84" height="38" rx="6" fill="#1976D2"/>
<text x="278" y="151" text-anchor="middle" class="box-title" fill="white">Budget</text>

<rect x="330" y="128" width="84" height="38" rx="6" fill="#1976D2"/>
<text x="372" y="151" text-anchor="middle" class="box-title" fill="white">AI Tips</text>

<rect x="424" y="128" width="84" height="38" rx="6" fill="#1976D2"/>
<text x="466" y="151" text-anchor="middle" class="box-title" fill="white">Reports</text>

<rect x="518" y="128" width="84" height="38" rx="6" fill="#1976D2"/>
<text x="560" y="151" text-anchor="middle" class="box-title" fill="white">Profile</text>

<!-- Arrow 1 -->
<line x1="340" y1="223" x2="340" y2="248" stroke="#555" stroke-width="1.5" marker-end="url(#arr)"/>
<text x="348" y="240" class="arrow-label">LiveData / observe</text>

<!-- ===== LAYER 2: ViewModel ===== -->
<rect x="30" y="250" width="620" height="88" rx="12" fill="#E8F5E9" stroke="#2E7D32" stroke-width="1.5"/>
<text x="340" y="272" text-anchor="middle" class="layer-title" fill="#2E7D32">ViewModel Layer</text>

<rect x="48" y="282" width="108" height="38" rx="6" fill="#2E7D32"/>
<text x="102" y="305" text-anchor="middle" class="box-title" fill="white">AuthViewModel</text>

<rect x="166" y="282" width="116" height="38" rx="6" fill="#2E7D32"/>
<text x="224" y="305" text-anchor="middle" class="box-title" fill="white">ExpenseViewModel</text>

<rect x="292" y="282" width="108" height="38" rx="6" fill="#2E7D32"/>
<text x="346" y="305" text-anchor="middle" class="box-title" fill="white">BudgetViewModel</text>

<rect x="410" y="282" width="96" height="38" rx="6" fill="#2E7D32"/>
<text x="458" y="305" text-anchor="middle" class="box-title" fill="white">AIViewModel</text>

<rect x="516" y="282" width="116" height="38" rx="6" fill="#388E3C"/>
<text x="574" y="305" text-anchor="middle" class="box-title" fill="white">ReportViewModel</text>

<!-- Arrow 2 -->
<line x1="340" y1="338" x2="340" y2="363" stroke="#555" stroke-width="1.5" marker-end="url(#arr)"/>
<text x="348" y="355" class="arrow-label">calls repository</text>

<!-- ===== LAYER 3: Repository ===== -->
<rect x="30" y="365" width="620" height="88" rx="12" fill="#FFF8E1" stroke="#F57F17" stroke-width="1.5"/>
<text x="340" y="387" text-anchor="middle" class="layer-title" fill="#F57F17">Repository Layer</text>

<rect x="48" y="397" width="108" height="38" rx="6" fill="#F57F17"/>
<text x="102" y="420" text-anchor="middle" class="box-title" fill="white">AuthRepository</text>

<rect x="166" y="397" width="116" height="38" rx="6" fill="#F57F17"/>
<text x="224" y="420" text-anchor="middle" class="box-title" fill="white">ExpenseRepository</text>

<rect x="292" y="397" width="108" height="38" rx="6" fill="#F57F17"/>
<text x="346" y="420" text-anchor="middle" class="box-title" fill="white">BudgetRepository</text>

<rect x="410" y="397" width="96" height="38" rx="6" fill="#F57F17"/>
<text x="458" y="420" text-anchor="middle" class="box-title" fill="white">AIRepository</text>

<rect x="516" y="397" width="116" height="38" rx="6" fill="#FB8C00"/>
<text x="574" y="420" text-anchor="middle" class="box-title" fill="white">ReportRepository</text>

<!-- Arrow 3 -->
<line x1="340" y1="453" x2="340" y2="478" stroke="#555" stroke-width="1.5" marker-end="url(#arr)"/>
<text x="348" y="470" class="arrow-label">reads / writes</text>

<!-- ===== LAYER 4: Data ===== -->
<rect x="30" y="480" width="620" height="205" rx="12" fill="#F3E5F5" stroke="#6A1B9A" stroke-width="1.5"/>
<text x="340" y="502" text-anchor="middle" class="layer-title" fill="#6A1B9A">Data Layer</text>

<!-- Room DB -->
<rect x="48" y="512" width="186" height="155" rx="10" fill="#7B1FA2" stroke="#4A148C" stroke-width="1"/>
<text x="141" y="534" text-anchor="middle" class="box-title" fill="white">Room Database</text>
<text x="141" y="550" text-anchor="middle" class="box-sub" fill="#E1BEE7">Offline local storage</text>
<rect x="62" y="560" width="76" height="32" rx="5" fill="#9C27B0"/>
<text x="100" y="580" text-anchor="middle" class="box-title" fill="white">ExpenseDAO</text>
<rect x="148" y="560" width="76" height="32" rx="5" fill="#9C27B0"/>
<text x="186" y="580" text-anchor="middle" class="box-title" fill="white">BudgetDAO</text>
<rect x="62" y="600" width="162" height="32" rx="5" fill="#6A1B9A"/>
<text x="143" y="620" text-anchor="middle" class="box-sub" fill="white">Expense + Budget tables</text>
<rect x="62" y="640" width="162" height="20" rx="4" fill="#4A148C"/>
<text x="143" y="654" text-anchor="middle" class="box-sub" fill="#CE93D8">SQLite via Room</text>

<!-- Firebase -->
<rect x="250" y="512" width="162" height="155" rx="10" fill="#E65100" stroke="#BF360C" stroke-width="1"/>
<text x="331" y="534" text-anchor="middle" class="box-title" fill="white">Firebase Auth</text>
<text x="331" y="550" text-anchor="middle" class="box-sub" fill="#FFE0B2">Cloud authentication</text>
<rect x="264" y="562" width="134" height="32" rx="5" fill="#F4511E"/>
<text x="331" y="582" text-anchor="middle" class="box-title" fill="white">Login / Signup</text>
<rect x="264" y="604" width="134" height="32" rx="5" fill="#F4511E"/>
<text x="331" y="624" text-anchor="middle" class="box-title" fill="white">Email Verification</text>
<rect x="264" y="646" width="134" height="14" rx="4" fill="#BF360C"/>
<text x="331" y="657" text-anchor="middle" class="box-sub" fill="#FFCCBC">Firebase SDK</text>

<!-- Gemini -->
<rect x="428" y="512" width="204" height="155" rx="10" fill="#1B5E20" stroke="#004D40" stroke-width="1"/>
<text x="530" y="534" text-anchor="middle" class="box-title" fill="white">Gemini 2.0 API</text>
<text x="530" y="550" text-anchor="middle" class="box-sub" fill="#A5D6A7">AI via Retrofit</text>
<rect x="442" y="562" width="90" height="32" rx="5" fill="#2E7D32"/>
<text x="487" y="582" text-anchor="middle" class="box-title" fill="white">RetrofitClient</text>
<rect x="542" y="562" width="80" height="32" rx="5" fill="#2E7D32"/>
<text x="582" y="582" text-anchor="middle" class="box-title" fill="white">GeminiService</text>
<rect x="442" y="604" width="180" height="32" rx="5" fill="#1B5E20"/>
<text x="532" y="624" text-anchor="middle" class="box-title" fill="white">Spending Insights + Tips</text>
<rect x="442" y="646" width="180" height="14" rx="4" fill="#004D40"/>
<text x="532" y="657" text-anchor="middle" class="box-sub" fill="#A5D6A7">generativelanguage API</text>

<!-- ===== BOTTOM: WorkManager + PDF ===== -->
<rect x="30" y="700" width="296" height="100" rx="12" fill="#E8EAF6" stroke="#3949AB" stroke-width="1.5"/>
<text x="178" y="722" text-anchor="middle" class="layer-title" fill="#3949AB">WorkManager — Notifications</text>
<rect x="46" y="732" width="82" height="52" rx="6" fill="#3949AB"/>
<text x="87" y="754" text-anchor="middle" class="box-title" fill="white">Daily</text>
<text x="87" y="770" text-anchor="middle" class="box-title" fill="white">Reminder</text>
<rect x="138" y="732" width="82" height="52" rx="6" fill="#3949AB"/>
<text x="179" y="754" text-anchor="middle" class="box-title" fill="white">Budget</text>
<text x="179" y="770" text-anchor="middle" class="box-title" fill="white">Warning</text>
<rect x="230" y="732" width="84" height="52" rx="6" fill="#283593"/>
<text x="272" y="754" text-anchor="middle" class="box-title" fill="white">Monthly</text>
<text x="272" y="770" text-anchor="middle" class="box-title" fill="white">Report</text>

<rect x="354" y="700" width="296" height="100" rx="12" fill="#FCE4EC" stroke="#C62828" stroke-width="1.5"/>
<text x="502" y="722" text-anchor="middle" class="layer-title" fill="#C62828">PDF Reports</text>
<rect x="370" y="732" width="124" height="52" rx="6" fill="#C62828"/>
<text x="432" y="754" text-anchor="middle" class="box-title" fill="white">ReportGenerator</text>
<text x="432" y="770" text-anchor="middle" class="box-title" fill="white">PdfDocument API</text>
<rect x="504" y="732" width="132" height="52" rx="6" fill="#B71C1C"/>
<text x="570" y="754" text-anchor="middle" class="box-title" fill="white">FileProvider</text>
<text x="570" y="770" text-anchor="middle" class="box-title" fill="white">Share via Intent</text>

<!-- Arrow marker -->
<defs>
<marker id="arr" viewBox="0 0 10 10" refX="8" refY="5" markerWidth="6" markerHeight="6" orient="auto-start-reverse">
<path d="M2 1L8 5L2 9" fill="none" stroke="#555" stroke-width="1.5" stroke-linecap="round" stroke-linejoin="round"/>
</marker>
</defs>
</svg>
